<?xml version="1.0" encoding="UTF-8"?>
<svg id="Layer_2" data-name="Layer 2" xmlns="http://www.w3.org/2000/svg" viewBox="0 0 650 401.49">
  <defs>
    <style>
      .cls-1 {
        fill: #fff;
      }
    </style>
  </defs>
  <g id="Logo_Stacked_White">
    <g id="Name">
      <g>
        <path class="cls-1" d="M54.93,349.99v50h-8.57v-21.5H8.57v21.5H0v-50h8.57v20.79h37.78v-20.79h8.57Z"/>
        <path class="cls-1" d="M79.41,374.99c0-16.5,11.86-26.5,31.07-26.5s31.07,10,31.07,26.5-11.86,26.5-31.07,26.5-31.07-10-31.07-26.5ZM132.77,374.99c0-12.14-8.71-18.93-22.29-18.93s-22.36,6.79-22.36,18.93,8.71,18.93,22.36,18.93,22.29-6.79,22.29-18.93Z"/>
        <path class="cls-1" d="M212.96,357.49h-22.79v42.5h-8.57v-42.5h-22.64v-7.5h54v7.5Z"/>
        <path class="cls-1" d="M353.21,349.99l-18.29,50h-8.86l-14.71-40.36-14.79,40.36h-8.78l-18.36-50h9.14l13.79,40,14.86-40h8.43l14.79,40,13.86-40h8.93Z"/>
        <path class="cls-1" d="M430.14,349.99v50h-8.57v-21.5h-37.79v21.5h-8.57v-50h8.57v20.79h37.79v-20.79h8.57Z"/>
        <path class="cls-1" d="M507.56,392.49v7.5h-49.79v-50h49.07v7.5h-40.57v13.36h34.14v7.5h-34.14v14.14h41.28Z"/>
        <path class="cls-1" d="M580.96,392.49v7.5h-49.79v-50h49.07v7.5h-40.57v13.36h34.14v7.5h-34.14v14.14h41.28Z"/>
        <path class="cls-1" d="M650,392.42v7.57h-45.43v-50h8.57v42.43h36.86Z"/>
      </g>
    </g>
    <g id="Symbol">
      <path class="cls-1" d="M225.56,166.67h-25.56v133.33h50v-108.89c0-13.5-10.94-24.44-24.44-24.44Z"/>
      <polygon class="cls-1" points="600 100 509.53 256.7 419.06 100 369.06 100 484.53 300 534.53 300 650 100 600 100"/>
      <path class="cls-1" d="M360.78,256.7l-68-117.77c-13.91-24.09-39.61-38.92-67.42-38.92H50V0H0v300h50v-150h175.37c14.74,0,28.35,7.86,35.72,20.62l74.7,129.38h50l39.75-68.85-25-43.3-39.75,68.85Z"/>
    </g>
  </g>
</svg>